<mxfile host="app.diagrams.net" modified="2023-04-19T14:55:38.895Z" agent="Mozilla/5.0 (Windows NT 10.0; Win64; x64) AppleWebKit/537.36 (KHTML, like Gecko) Chrome/112.0.0.0 Safari/537.36" etag="XFtQvLVwwj_28SM1fF9O" version="21.1.7" type="device">
  <diagram name="Сторінка-1" id="swwp-3di2CindniWJhl5">
    <mxGraphModel dx="1136" dy="1823" grid="1" gridSize="10" guides="1" tooltips="1" connect="1" arrows="1" fold="1" page="1" pageScale="1" pageWidth="827" pageHeight="1169" math="0" shadow="0">
      <root>
        <mxCell id="0" />
        <mxCell id="1" parent="0" />
        <mxCell id="kIK5xhCgO_ZRWYX-LJQb-4" value="Юзер головний (1)&lt;br&gt;Задачі та нотатки належать юзеру (багато)&lt;br&gt;&lt;br&gt;Зв&#39;язок 1:багатьох" style="text;html=1;strokeColor=none;fillColor=none;align=center;verticalAlign=middle;whiteSpace=wrap;rounded=0;" vertex="1" parent="1">
          <mxGeometry x="65" y="110" width="320" height="70" as="geometry" />
        </mxCell>
        <mxCell id="kIK5xhCgO_ZRWYX-LJQb-10" value="Моделі описують дані що будуть зберігатися у БД та використовуватися у програмі" style="text;html=1;strokeColor=none;fillColor=none;align=center;verticalAlign=middle;whiteSpace=wrap;rounded=0;" vertex="1" parent="1">
          <mxGeometry x="70" y="290" width="310" height="30" as="geometry" />
        </mxCell>
        <mxCell id="kIK5xhCgO_ZRWYX-LJQb-11" value="Сервіси відповідають за роботу з БД (модель-бд)" style="text;html=1;strokeColor=none;fillColor=none;align=center;verticalAlign=middle;whiteSpace=wrap;rounded=0;" vertex="1" parent="1">
          <mxGeometry x="470" y="110" width="140" height="30" as="geometry" />
        </mxCell>
        <mxCell id="kIK5xhCgO_ZRWYX-LJQb-12" value="" style="shape=cylinder3;whiteSpace=wrap;html=1;boundedLbl=1;backgroundOutline=1;size=15;" vertex="1" parent="1">
          <mxGeometry x="390" width="60" height="80" as="geometry" />
        </mxCell>
        <mxCell id="kIK5xhCgO_ZRWYX-LJQb-13" value="Page" style="whiteSpace=wrap;html=1;aspect=fixed;" vertex="1" parent="1">
          <mxGeometry x="320" y="420" width="80" height="80" as="geometry" />
        </mxCell>
        <mxCell id="kIK5xhCgO_ZRWYX-LJQb-14" value="PageModel" style="whiteSpace=wrap;html=1;aspect=fixed;" vertex="1" parent="1">
          <mxGeometry x="410" y="420" width="80" height="80" as="geometry" />
        </mxCell>
        <mxCell id="kIK5xhCgO_ZRWYX-LJQb-15" value="Page просто відображає дані" style="text;html=1;strokeColor=none;fillColor=none;align=center;verticalAlign=middle;whiteSpace=wrap;rounded=0;" vertex="1" parent="1">
          <mxGeometry x="190" y="445" width="120" height="30" as="geometry" />
        </mxCell>
        <mxCell id="kIK5xhCgO_ZRWYX-LJQb-16" value="PageModel оброблює запити Get чи Post та за потреби звертається до сервісів" style="text;html=1;strokeColor=none;fillColor=none;align=center;verticalAlign=middle;whiteSpace=wrap;rounded=0;" vertex="1" parent="1">
          <mxGeometry x="510" y="445" width="230" height="30" as="geometry" />
        </mxCell>
        <mxCell id="kIK5xhCgO_ZRWYX-LJQb-20" value="" style="endArrow=classic;startArrow=classic;html=1;rounded=0;entryX=0.5;entryY=1;entryDx=0;entryDy=0;exitX=0.5;exitY=1;exitDx=0;exitDy=0;" edge="1" parent="1" source="kIK5xhCgO_ZRWYX-LJQb-13" target="kIK5xhCgO_ZRWYX-LJQb-14">
          <mxGeometry width="50" height="50" relative="1" as="geometry">
            <mxPoint x="380" y="570" as="sourcePoint" />
            <mxPoint x="430" y="520" as="targetPoint" />
            <Array as="points">
              <mxPoint x="410" y="540" />
            </Array>
          </mxGeometry>
        </mxCell>
        <mxCell id="kIK5xhCgO_ZRWYX-LJQb-21" value="" style="endArrow=classic;startArrow=classic;html=1;rounded=0;exitX=0.5;exitY=0;exitDx=0;exitDy=0;entryX=0.5;entryY=1;entryDx=0;entryDy=0;" edge="1" parent="1" source="kIK5xhCgO_ZRWYX-LJQb-14" target="kIK5xhCgO_ZRWYX-LJQb-22">
          <mxGeometry width="50" height="50" relative="1" as="geometry">
            <mxPoint x="460" y="410" as="sourcePoint" />
            <mxPoint x="530" y="380" as="targetPoint" />
          </mxGeometry>
        </mxCell>
        <mxCell id="kIK5xhCgO_ZRWYX-LJQb-23" value="" style="group" vertex="1" connectable="0" parent="1">
          <mxGeometry x="470" y="150" width="140" height="220" as="geometry" />
        </mxCell>
        <mxCell id="kIK5xhCgO_ZRWYX-LJQb-22" value="" style="rounded=0;whiteSpace=wrap;html=1;" vertex="1" parent="kIK5xhCgO_ZRWYX-LJQb-23">
          <mxGeometry width="140" height="220" as="geometry" />
        </mxCell>
        <mxCell id="kIK5xhCgO_ZRWYX-LJQb-6" value="UserService" style="shape=process;whiteSpace=wrap;html=1;backgroundOutline=1;" vertex="1" parent="kIK5xhCgO_ZRWYX-LJQb-23">
          <mxGeometry x="10" y="10" width="120" height="60" as="geometry" />
        </mxCell>
        <mxCell id="kIK5xhCgO_ZRWYX-LJQb-7" value="NotesService" style="shape=process;whiteSpace=wrap;html=1;backgroundOutline=1;" vertex="1" parent="kIK5xhCgO_ZRWYX-LJQb-23">
          <mxGeometry x="10" y="150" width="120" height="60" as="geometry" />
        </mxCell>
        <mxCell id="kIK5xhCgO_ZRWYX-LJQb-8" value="TasksService" style="shape=process;whiteSpace=wrap;html=1;backgroundOutline=1;" vertex="1" parent="kIK5xhCgO_ZRWYX-LJQb-23">
          <mxGeometry x="10" y="80" width="120" height="60" as="geometry" />
        </mxCell>
        <mxCell id="kIK5xhCgO_ZRWYX-LJQb-25" value="" style="endArrow=classic;startArrow=classic;html=1;rounded=0;entryX=0.5;entryY=1;entryDx=0;entryDy=0;entryPerimeter=0;exitX=0;exitY=0;exitDx=0;exitDy=0;" edge="1" parent="1" source="kIK5xhCgO_ZRWYX-LJQb-22" target="kIK5xhCgO_ZRWYX-LJQb-12">
          <mxGeometry width="50" height="50" relative="1" as="geometry">
            <mxPoint x="395" y="160" as="sourcePoint" />
            <mxPoint x="445" y="110" as="targetPoint" />
          </mxGeometry>
        </mxCell>
        <mxCell id="kIK5xhCgO_ZRWYX-LJQb-29" value="" style="group" vertex="1" connectable="0" parent="1">
          <mxGeometry x="35" y="180" width="380" height="110" as="geometry" />
        </mxCell>
        <mxCell id="kIK5xhCgO_ZRWYX-LJQb-28" value="" style="rounded=0;whiteSpace=wrap;html=1;" vertex="1" parent="kIK5xhCgO_ZRWYX-LJQb-29">
          <mxGeometry width="380" height="110" as="geometry" />
        </mxCell>
        <mxCell id="kIK5xhCgO_ZRWYX-LJQb-1" value="Models.User" style="shape=umlActor;verticalLabelPosition=bottom;verticalAlign=top;html=1;outlineConnect=0;" vertex="1" parent="kIK5xhCgO_ZRWYX-LJQb-29">
          <mxGeometry x="175" y="20" width="30" height="60" as="geometry" />
        </mxCell>
        <mxCell id="kIK5xhCgO_ZRWYX-LJQb-2" value="Models.Task" style="rounded=1;whiteSpace=wrap;html=1;" vertex="1" parent="kIK5xhCgO_ZRWYX-LJQb-29">
          <mxGeometry x="25" y="25" width="120" height="60" as="geometry" />
        </mxCell>
        <mxCell id="kIK5xhCgO_ZRWYX-LJQb-3" value="Models.Notes" style="rounded=1;whiteSpace=wrap;html=1;" vertex="1" parent="kIK5xhCgO_ZRWYX-LJQb-29">
          <mxGeometry x="235" y="25" width="120" height="60" as="geometry" />
        </mxCell>
        <mxCell id="kIK5xhCgO_ZRWYX-LJQb-30" value="DbContext&amp;nbsp; має DbSet з цих моделей" style="shape=process;whiteSpace=wrap;html=1;backgroundOutline=1;" vertex="1" parent="1">
          <mxGeometry x="150" y="-50" width="190" height="60" as="geometry" />
        </mxCell>
        <mxCell id="kIK5xhCgO_ZRWYX-LJQb-34" style="edgeStyle=orthogonalEdgeStyle;rounded=0;orthogonalLoop=1;jettySize=auto;html=1;entryX=0;entryY=0.5;entryDx=0;entryDy=0;exitX=0.093;exitY=-0.011;exitDx=0;exitDy=0;exitPerimeter=0;" edge="1" parent="1" source="kIK5xhCgO_ZRWYX-LJQb-28" target="kIK5xhCgO_ZRWYX-LJQb-30">
          <mxGeometry relative="1" as="geometry">
            <mxPoint x="20" y="190" as="sourcePoint" />
            <mxPoint x="330" y="10" as="targetPoint" />
            <Array as="points">
              <mxPoint x="70" y="180" />
              <mxPoint x="70" y="180" />
              <mxPoint x="70" y="-20" />
            </Array>
          </mxGeometry>
        </mxCell>
        <mxCell id="kIK5xhCgO_ZRWYX-LJQb-36" value="" style="endArrow=classic;startArrow=classic;html=1;rounded=0;entryX=0;entryY=0;entryDx=0;entryDy=15;entryPerimeter=0;exitX=1;exitY=0.5;exitDx=0;exitDy=0;" edge="1" parent="1" source="kIK5xhCgO_ZRWYX-LJQb-30" target="kIK5xhCgO_ZRWYX-LJQb-12">
          <mxGeometry width="50" height="50" relative="1" as="geometry">
            <mxPoint x="350" as="sourcePoint" />
            <mxPoint x="400" y="-50" as="targetPoint" />
          </mxGeometry>
        </mxCell>
      </root>
    </mxGraphModel>
  </diagram>
</mxfile>
